<?xml version="1.0" encoding="utf-8"?>
<!-- Generator: Adobe Illustrator 24.3.0, SVG Export Plug-In . SVG Version: 6.00 Build 0)  -->
<svg version="1.1" id="Layer_1" xmlns="http://www.w3.org/2000/svg" xmlns:xlink="http://www.w3.org/1999/xlink" x="0px" y="0px"
	 viewBox="0 0 160 160" style="enable-background:new 0 0 160 160;" xml:space="preserve">
<style type="text/css">
	.st0{fill:#FFFFFF;stroke:#F2F2F2;stroke-miterlimit:10;}
	.st1{font-family:'AvenirNext-DemiBold';}
	.st2{font-size:12px;}
	.st3{fill:#FFFFFF;stroke:#FFFFFF;stroke-miterlimit:10;}
</style>
<g>
	<g>
		<line class="st0" x1="40" y1="102.2" x2="79.6" y2="79"/>
		<g>
			<polygon class="st0" points="42.1,103.1 40.5,101.9 40.2,99.9 37.4,103.7 			"/>
		</g>
	</g>
</g>
<g>
	<g>
		<line class="st0" x1="79.7" y1="32.3" x2="79.7" y2="78.2"/>
		<g>
			<polygon class="st0" points="77.9,33.7 79.7,32.9 81.6,33.7 79.7,29.3 			"/>
		</g>
	</g>
</g>
<g>
	<g>
		<line class="st0" x1="118.7" y1="55.7" x2="79.1" y2="78.9"/>
		<g>
			<polygon class="st0" points="116.6,54.8 118.2,56 118.4,58 121.3,54.2 			"/>
		</g>
	</g>
</g>
<g>
	<g>
		<line class="st0" x1="79.7" y1="124.9" x2="79.7" y2="79"/>
		<g>
			<polygon class="st0" points="81.5,123.5 79.7,124.3 77.8,123.5 79.7,127.9 			"/>
		</g>
	</g>
</g>
<g>
	<g>
		<line class="st0" x1="122.4" y1="95.3" x2="79.5" y2="79.1"/>
		<g>
			<polygon class="st0" points="121.8,93.1 121.9,95.1 120.5,96.6 125.2,96.4 			"/>
		</g>
	</g>
</g>
<g>
	<g>
		<line class="st0" x1="36.3" y1="62.7" x2="79.3" y2="78.8"/>
		<g>
			<polygon class="st0" points="36.9,64.9 36.9,62.9 38.2,61.4 33.5,61.6 			"/>
		</g>
	</g>
</g>
<text transform="matrix(1 0 0 1 76.8426 22.1959)" class="st0 st1 st2">Z</text>
<text transform="matrix(1 0 0 1 75.6219 141.7896)" class="st3 st1 st2">X</text>
<g>
	<g>
		<line class="st0" x1="18.4" y1="58.8" x2="31.2" y2="58.8"/>
		<g>
			<path class="st0" d="M25.2,63.6c0.1-0.2,0.1-0.5-0.2-0.7l-6.5-4.1l6.5-4.1c0.2-0.1,0.3-0.5,0.2-0.7s-0.5-0.3-0.7-0.2l-7.1,4.5
				c-0.1,0.1-0.2,0.3-0.2,0.4s0.1,0.3,0.2,0.4l7.1,4.5c0.1,0.1,0.2,0.1,0.3,0.1C25,63.8,25.1,63.7,25.2,63.6z"/>
		</g>
	</g>
</g>
<g>
	<g>
		<line class="st0" x1="141" y1="99.8" x2="128.2" y2="99.8"/>
		<g>
			<path class="st0" d="M134.2,95c-0.1,0.2-0.1,0.5,0.2,0.7l6.5,4.1l-6.5,4.1c-0.2,0.1-0.3,0.5-0.2,0.7s0.5,0.3,0.7,0.2l7.1-4.5
				c0.1-0.1,0.2-0.3,0.2-0.4s-0.1-0.3-0.2-0.4l-7.1-4.5c-0.1-0.1-0.2-0.1-0.3-0.1C134.4,94.7,134.3,94.8,134.2,95z"/>
		</g>
	</g>
</g>
<g>
	<g>
		<line class="st0" x1="27.7" y1="115.1" x2="27.7" y2="102.3"/>
		<g>
			<path class="st0" d="M32.5,108.2c-0.2-0.1-0.5-0.1-0.7,0.2l-4.1,6.5l-4.1-6.5c-0.1-0.2-0.5-0.3-0.7-0.2c-0.2,0.1-0.3,0.5-0.2,0.7
				l4.5,7.1c0.1,0.1,0.3,0.2,0.4,0.2s0.3-0.1,0.4-0.2l4.5-7.1c0.1-0.1,0.1-0.2,0.1-0.3C32.7,108.5,32.6,108.3,32.5,108.2z"/>
		</g>
	</g>
</g>
<g>
	<g>
		<line class="st0" x1="131.7" y1="43.5" x2="131.7" y2="56.3"/>
		<g>
			<path class="st0" d="M126.9,50.3c0.2,0.1,0.5,0.1,0.7-0.2l4.1-6.5l4.1,6.5c0.1,0.2,0.5,0.3,0.7,0.2s0.3-0.5,0.2-0.7l-4.5-7.1
				c-0.1-0.1-0.3-0.2-0.4-0.2s-0.3,0.1-0.4,0.2l-4.5,7.1c-0.1,0.1-0.1,0.2-0.1,0.3C126.7,50.1,126.7,50.2,126.9,50.3z"/>
		</g>
	</g>
</g>
</svg>
